<svg id="visual" viewBox="0 0 900 600" width="900" height="600" xmlns="http://www.w3.org/2000/svg" xmlns:xlink="http://www.w3.org/1999/xlink" version="1.1"><rect x="0" y="0" width="900" height="600" fill="#001220"></rect><defs><linearGradient id="grad1_0" x1="33.3%" y1="0%" x2="100%" y2="100%"><stop offset="20%" stop-color="#001220" stop-opacity="1"></stop><stop offset="80%" stop-color="#001220" stop-opacity="1"></stop></linearGradient></defs><defs><linearGradient id="grad2_0" x1="0%" y1="0%" x2="66.7%" y2="100%"><stop offset="20%" stop-color="#001220" stop-opacity="1"></stop><stop offset="80%" stop-color="#001220" stop-opacity="1"></stop></linearGradient></defs><g transform="translate(900, 0)"><path d="M0 486.7C-71.5 488 -142.9 489.2 -186.3 449.7C-229.6 410.2 -244.8 329.9 -280 280C-315.3 230.2 -370.6 210.7 -408.4 169.1C-446.2 127.6 -466.5 63.8 -486.7 0L0 0Z" fill="#009473"></path></g><g transform="translate(0, 600)"><path d="M0 -486.7C51 -450.9 101.9 -415 164.6 -397.3C227.2 -379.6 301.4 -380.1 344.2 -344.2C386.9 -308.3 398.2 -236 416.7 -172.6C435.2 -109.2 461 -54.6 486.7 0L0 0Z" fill="#009473"></path></g></svg>