<svg id="Layer_1" data-name="Layer 1" xmlns="http://www.w3.org/2000/svg" viewBox="0 0 467.17 551.82"><defs><style>.cls-1{fill:#ff9215;}.cls-2{fill:#bf6000;}</style></defs><path d="M787.57,402.11H536.3a15.53,15.53,0,0,0-15.53,15.54v38.67a15.53,15.53,0,0,0,15.53,15.54h6.9l10.59,172.61a19.79,19.79,0,0,0,19.79,19.79h176.7a19.79,19.79,0,0,0,19.79-19.79l10.6-172.61h6.9a15.53,15.53,0,0,0,15.53-15.54V417.65A15.53,15.53,0,0,0,787.57,402.11Z" transform="translate(-427.19 -112.44)"/><rect class="cls-1" x="114.46" y="307.59" width="238.25" height="31.71"/><rect class="cls-2" x="331.82" y="307.59" width="20.89" height="31.71"/><path class="cls-1" d="M564.86,473.4l190.28-1.54L744.31,638.94l-167.85.77Q570.66,556.56,564.86,473.4Z" transform="translate(-427.19 -112.44)"/><path class="cls-2" d="M755.14,471.86,744.31,638.94l-23.08.1,10.71-167.18Z" transform="translate(-427.19 -112.44)"/><path d="M494,285.67c-23.78,26,11.63,61.12,37.4,37.4,71.4-71.3,187.4-71.3,258.8,0a26.28,26.28,0,0,0,18.7,7.8c23.25,0,35.33-28.5,18.7-45.2C735.64,193.67,586,193.67,494,285.67Z" transform="translate(-427.19 -112.44)"/><path d="M549.08,346.68c-15.83,17.26,7.73,40.66,24.88,24.88a122,122,0,0,1,172.17,0,17.49,17.49,0,0,0,12.44,5.19c15.47,0,23.51-19,12.44-30.07C709.81,285.47,610.28,285.47,549.08,346.68Z" transform="translate(-427.19 -112.44)"/><path d="M437.7,204.76c-31.82,34.72,15.55,81.78,50,50,95.52-95.39,250.72-95.39,346.25,0a35.15,35.15,0,0,0,25,10.44c31.1,0,47.27-38.14,25-60.48C760.94,81.67,560.79,81.67,437.7,204.76Z" transform="translate(-427.19 -112.44)"/></svg>