<?xml version="1.0" encoding="UTF-8" standalone="no"?>
<!DOCTYPE svg PUBLIC "-//W3C//DTD SVG 1.1//EN" "http://www.w3.org/Graphics/SVG/1.1/DTD/svg11.dtd">
<svg width="100%" height="100%" viewBox="0 0 1489 712" version="1.1" xmlns="http://www.w3.org/2000/svg" xmlns:xlink="http://www.w3.org/1999/xlink" xml:space="preserve" xmlns:serif="http://www.serif.com/" style="fill-rule:evenodd;clip-rule:evenodd;stroke-linejoin:round;stroke-miterlimit:2;">
    <g transform="matrix(1,0,0,1,-136.64,-529.883)">
        <g>
            <g transform="matrix(4.16667,0,0,4.16667,0,328.469)">
                <path d="M198.587,160.039C199.564,160.039 200.315,160.79 200.315,161.767L200.315,163.493C200.315,164.47 199.564,165.221 198.587,165.221L190.401,165.221L190.401,184.636C190.401,185.574 189.612,186.325 188.674,186.325L185.219,186.325C184.28,186.325 183.491,185.574 183.491,184.636L183.491,165.221L175.305,165.221C174.329,165.221 173.578,164.47 173.578,163.493L173.578,161.767C173.578,160.79 174.329,160.039 175.305,160.039L198.587,160.039Z" style="fill:rgb(20,70,158);fill-rule:nonzero;"/>
            </g>
            <g transform="matrix(4.16667,0,0,4.16667,0,354.287)">
                <path d="M204.481,168.15L213.005,168.15C212.893,165.334 211.541,163.832 208.762,163.832C206.058,163.832 204.631,165.334 204.481,168.15M204.519,172.018C204.782,175.022 206.133,176.337 209.212,176.337C210.79,176.337 212.179,175.886 212.818,175.097C213.306,174.497 213.982,174.122 214.92,174.122L217.662,174.122C218.3,174.122 218.789,174.609 218.789,175.248C218.789,179.153 214.77,180.505 208.762,180.505C202.078,180.505 198.06,176.9 198.06,170.103C198.06,163.343 202.116,159.664 208.762,159.664C215.446,159.664 219.464,163.231 219.464,169.84L219.464,170.892C219.464,171.53 218.976,172.018 218.337,172.018L204.519,172.018Z" style="fill:rgb(20,70,158);fill-rule:nonzero;"/>
            </g>
            <g transform="matrix(4.16667,0,0,4.16667,0,354.288)">
                <path d="M228.25,170.102C228.25,174.233 229.489,176.073 233.245,176.073C235.16,176.073 236.55,175.359 237.188,174.345C237.714,173.519 238.352,172.994 239.291,172.994L242.032,172.994C242.67,172.994 243.158,173.482 243.158,174.121C243.158,178.401 239.253,180.504 232.794,180.504C225.659,180.504 221.717,176.974 221.717,170.102C221.717,163.193 225.697,159.663 232.606,159.663C239.065,159.663 242.971,161.765 242.971,166.046C242.971,166.685 242.482,167.173 241.844,167.173L239.103,167.173C238.164,167.173 237.525,166.647 237,165.821C236.361,164.807 234.973,164.094 233.057,164.094C229.489,164.094 228.25,165.934 228.25,170.102" style="fill:rgb(20,70,158);fill-rule:nonzero;"/>
            </g>
            <g transform="matrix(4.16667,0,0,4.16667,0,328.469)">
                <path d="M260.919,174.685C260.919,171.568 259.492,170.291 257.427,170.291C255.587,170.291 253.859,171.568 252.508,172.919L252.508,185.199C252.508,185.837 252.02,186.326 251.381,186.326L247.288,186.326C246.649,186.326 246.161,185.837 246.161,185.199L246.161,161.165C246.161,160.528 246.649,160.039 247.288,160.039L251.381,160.039C252.02,160.039 252.508,160.528 252.508,161.165L252.508,168.526C254.235,167.062 256.112,165.86 258.929,165.86C263.811,165.86 267.266,168.451 267.266,174.685L267.266,185.199C267.266,185.837 266.777,186.326 266.139,186.326L262.046,186.326C261.407,186.326 260.919,185.837 260.919,185.199L260.919,174.685Z" style="fill:rgb(20,70,158);fill-rule:nonzero;"/>
            </g>
            <g transform="matrix(4.16667,0,0,4.16667,0,352.723)">
                <path d="M286.527,168.864C286.527,165.747 285.1,164.47 283.035,164.47C281.195,164.47 279.467,165.747 278.116,167.098L278.116,179.378C278.116,180.016 277.628,180.505 276.989,180.505L272.896,180.505C272.257,180.505 271.769,180.016 271.769,179.378L271.769,161.541C271.769,160.902 272.257,160.415 272.896,160.415L276.989,160.415C277.628,160.415 278.116,160.902 278.116,161.541L278.116,162.705C279.843,161.241 281.72,160.039 284.537,160.039C289.419,160.039 292.874,162.63 292.874,168.864L292.874,179.378C292.874,180.016 292.385,180.505 291.747,180.505L287.654,180.505C287.015,180.505 286.527,180.016 286.527,179.378L286.527,168.864Z" style="fill:rgb(20,70,158);fill-rule:nonzero;"/>
            </g>
            <g transform="matrix(4.16667,0,0,4.16667,0,326.903)">
                <path d="M298.581,186.701C297.942,186.701 297.454,186.213 297.454,185.574L297.454,168.188C297.454,167.55 297.942,167.061 298.581,167.061L302.674,167.061C303.312,167.061 303.801,167.55 303.801,168.188L303.801,185.574C303.801,186.213 303.312,186.701 302.674,186.701L298.581,186.701ZM297.379,162.142C297.379,160.828 298.168,160.039 299.482,160.039L301.772,160.039C303.087,160.039 303.876,160.828 303.876,162.142L303.876,162.78C303.876,164.095 303.087,164.884 301.772,164.884L299.482,164.884C298.168,164.884 297.379,164.095 297.379,162.78L297.379,162.142Z" style="fill:rgb(20,70,158);fill-rule:nonzero;"/>
            </g>
            <g transform="matrix(4.16667,0,0,4.16667,0,328.471)">
                <path d="M314.727,174.196C316.905,174.196 318.331,173.295 319.083,171.717L320.849,167.962C321.336,166.911 322.388,166.235 323.476,166.235L326.931,166.235C327.908,166.235 328.02,166.986 327.571,167.962L325.205,172.957C324.415,174.609 322.914,175.923 321.298,176.261C322.838,176.712 324.078,177.763 325.205,179.565L328.321,184.597C328.921,185.574 328.66,186.325 327.683,186.325L324.227,186.325C323.026,186.325 322.013,185.574 321.411,184.597L319.083,180.804C318.07,179.152 316.416,178.364 314.727,178.364L314.727,185.198C314.727,185.837 314.239,186.325 313.601,186.325L309.508,186.325C308.87,186.325 308.381,185.837 308.381,185.198L308.381,161.165C308.381,160.527 308.87,160.039 309.508,160.039L313.601,160.039C314.239,160.039 314.727,160.527 314.727,161.165L314.727,174.196Z" style="fill:rgb(20,70,158);fill-rule:nonzero;"/>
            </g>
            <g transform="matrix(4.16667,0,0,4.16667,0,355.852)">
                <path d="M337.632,171.304C337.632,174.421 339.059,175.698 341.124,175.698C342.964,175.698 344.692,174.421 346.043,173.069L346.043,160.789C346.043,160.151 346.531,159.663 347.17,159.663L351.263,159.663C351.902,159.663 352.39,160.151 352.39,160.789L352.39,178.626C352.39,179.265 351.902,179.753 351.263,179.753L347.17,179.753C346.531,179.753 346.043,179.265 346.043,178.626L346.043,177.462C344.316,178.927 342.439,180.129 339.622,180.129C334.74,180.129 331.285,177.537 331.285,171.304L331.285,160.789C331.285,160.151 331.774,159.663 332.412,159.663L336.505,159.663C337.144,159.663 337.632,160.151 337.632,160.789L337.632,171.304Z" style="fill:rgb(20,70,158);fill-rule:nonzero;"/>
            </g>
            <g transform="matrix(4.16667,0,0,4.16667,0,352.723)">
                <path d="M370.338,168.864C370.338,165.747 369.174,164.47 367.147,164.47C365.569,164.47 364.405,165.484 363.241,167.098L363.241,179.378C363.241,180.016 362.753,180.505 362.114,180.505L358.022,180.505C357.383,180.505 356.895,180.016 356.895,179.378L356.895,161.541C356.895,160.902 357.383,160.415 358.022,160.415L362.114,160.415C362.753,160.415 363.241,160.902 363.241,161.541L363.241,162.705C364.705,161.278 366.282,160.039 368.911,160.039C371.915,160.039 373.943,161.241 375.37,163.569C377.473,161.39 379.764,160.039 382.355,160.039C386.937,160.039 390.128,162.63 390.128,168.864L390.128,179.378C390.128,180.016 389.64,180.505 389.002,180.505L384.908,180.505C384.271,180.505 383.782,180.016 383.782,179.378L383.782,168.864C383.782,165.747 382.618,164.47 380.59,164.47C379.351,164.47 377.886,165.484 376.572,167.286C376.648,167.812 376.685,168.338 376.685,168.864L376.685,179.378C376.685,180.016 376.196,180.505 375.558,180.505L371.465,180.505C370.826,180.505 370.338,180.016 370.338,179.378L370.338,168.864Z" style="fill:rgb(20,70,158);fill-rule:nonzero;"/>
            </g>
        </g>
        <g transform="matrix(4.16667,0,0,4.16667,0,183.854)">
            <path d="M96.064,235.051C71.495,235.051 51.554,215.115 51.554,190.549C51.554,165.985 71.495,146.045 96.064,146.045C120.634,146.045 140.573,165.985 140.573,190.549C140.573,215.115 120.634,235.051 96.064,235.051M159.539,193.697L159.539,187.375L150.163,183.666L148.683,176.223L155.924,169.209L153.503,163.367L143.425,163.528L139.207,157.217L143.212,147.967L138.741,143.496L129.492,147.502L123.177,143.285L123.339,133.205L117.497,130.787L110.485,138.028L103.037,136.547L99.328,127.172L93.005,127.172L89.296,136.547L81.85,138.028L74.837,130.787L68.994,133.205L69.156,143.285L62.843,147.502L53.592,143.496L49.121,147.967L53.126,157.217L48.909,163.528L38.828,163.367L36.408,169.209L43.651,176.223L42.169,183.666L32.794,187.375L32.794,193.697L42.169,197.406L43.651,204.852L36.408,211.864L38.828,217.707L48.909,217.545L53.126,223.856L49.121,233.106L53.592,237.578L62.843,233.572L69.156,237.789L68.994,247.869L74.837,250.289L81.85,243.045L89.296,244.53L93.005,253.901L99.328,253.901L103.037,244.53L110.485,243.045L117.497,250.289L123.339,247.869L123.177,237.789L129.492,233.572L138.741,237.578L143.212,233.106L139.207,223.856L143.425,217.545L153.503,217.707L155.924,211.864L148.683,204.852L150.163,197.406L159.539,193.697Z" style="fill:rgb(154,169,204);fill-rule:nonzero;"/>
        </g>
        <g transform="matrix(4.16667,0,0,4.16667,0,-294.776)">
            <path d="M188.534,279.74C170.986,280.668 155.991,267.181 155.063,249.636C154.137,232.09 167.626,217.099 185.173,216.172C202.722,215.244 217.714,228.73 218.64,246.275C219.568,263.82 206.082,278.812 188.534,279.74M227.117,254.412L236.762,250.605L236.692,244.267L226.973,240.67L224.924,233.342L231.373,225.226L228.145,219.769L217.925,221.515L212.488,216.193L214.014,205.939L208.49,202.83L200.513,209.447L193.142,207.558L189.338,197.918L182.999,197.984L179.398,207.705L172.068,209.752L163.954,203.304L158.496,206.533L160.239,216.75L154.917,222.187L144.666,220.662L141.555,226.185L148.175,234.16L146.281,241.531L136.639,245.334L136.708,251.674L146.428,255.271L148.476,262.599L142.028,270.715L145.256,276.17L155.473,274.428L160.913,279.75L159.387,290L164.911,293.111L172.888,286.492L180.26,288.383L184.064,298.025L190.402,297.957L194.002,288.238L201.33,286.189L209.447,292.636L214.902,289.408L213.158,279.191L218.482,273.754L228.736,275.281L231.847,269.758L225.227,261.781L227.117,254.412Z" style="fill:rgb(154,169,204);fill-rule:nonzero;"/>
        </g>
        <g transform="matrix(4.16667,0,0,4.16667,0,-297.204)">
            <path d="M192.356,254.736C190.737,254.736 189.378,253.378 189.378,251.758L189.378,249.299C189.378,247.68 190.737,246.321 192.356,246.321L208.212,246.321C209.833,246.321 211.19,247.68 211.19,249.299L211.19,252.795C211.19,264.446 204.2,271.176 190.284,271.176L183.164,271.176C169.442,271.176 161.479,263.993 161.479,248.263C161.479,232.534 169.442,225.35 184.912,225.35L191.967,225.35C200.769,225.35 210.155,230.075 210.155,237.001C210.155,239.914 207.76,240.497 206.919,240.497L203.165,240.497C201.353,240.497 199.993,239.59 198.893,237.518C197.728,235.318 194.75,234.282 190.867,234.282L185.235,234.282C175.914,234.282 173.39,237.713 173.39,248.263C173.39,258.814 175.914,262.245 183.488,262.245L189.96,262.245C197.081,262.245 199.41,259.267 199.475,254.736L192.356,254.736Z" style="fill:rgb(20,70,158);fill-rule:nonzero;"/>
        </g>
        <g transform="matrix(4.16667,0,0,4.16667,0,182.495)">
            <path d="M93.783,159.505L104.71,159.505C115.813,159.505 127.709,165.938 127.709,175.366C127.709,179.332 124.449,180.125 123.304,180.125L118.192,180.125C115.724,180.125 113.786,178.98 112.377,176.071C110.967,173.075 107.618,171.665 103.212,171.665L90.259,171.665C84.971,171.665 82.68,173.516 82.68,176.6C82.68,186.822 129.296,180.918 129.296,203.917C129.296,214.491 123.127,221.894 101.978,221.894L88.936,221.894C77.834,221.894 65.937,215.461 65.937,206.032C65.937,202.067 69.198,201.274 70.344,201.274L75.454,201.274C77.922,201.274 79.86,202.419 81.27,205.327C82.68,208.323 86.028,209.734 90.434,209.734L105.503,209.734C110.79,209.734 113.081,207.883 113.081,204.798C113.081,194.576 66.466,200.305 66.466,177.482C66.466,166.907 72.635,159.505 93.783,159.505" style="fill:rgb(20,70,158);fill-rule:nonzero;"/>
        </g>
        <g>
            <g transform="matrix(4.16667,0,0,4.16667,0,590.487)">
                <path d="M185.954,136.879L187.656,136.879C189.387,136.879 191.241,137.882 191.241,139.351C191.241,139.969 190.732,140.093 190.555,140.093L189.758,140.093C189.373,140.093 189.071,139.914 188.851,139.461C188.632,138.994 188.109,138.775 187.423,138.775L185.404,138.775C184.58,138.775 184.224,139.063 184.224,139.543C184.224,141.136 191.488,140.216 191.488,143.801C191.488,145.448 190.526,146.602 187.23,146.602L185.198,146.602C183.468,146.602 181.614,145.6 181.614,144.13C181.614,143.512 182.122,143.389 182.301,143.389L183.098,143.389C183.481,143.389 183.784,143.566 184.004,144.02C184.224,144.487 184.745,144.707 185.432,144.707L187.78,144.707C188.604,144.707 188.961,144.418 188.961,143.938C188.961,142.345 181.696,143.237 181.696,139.681C181.696,138.032 182.658,136.879 185.954,136.879" style="fill:rgb(20,70,158);fill-rule:nonzero;"/>
            </g>
            <g transform="matrix(4.16667,0,0,4.16667,0,599.933)">
                <path d="M194.699,140.613C194.699,142.124 195.152,142.797 196.525,142.797C197.225,142.797 197.734,142.536 197.968,142.165C198.159,141.863 198.393,141.671 198.736,141.671L199.739,141.671C199.972,141.671 200.151,141.849 200.151,142.083C200.151,143.648 198.722,144.418 196.36,144.418C193.751,144.418 192.309,143.127 192.309,140.613C192.309,138.087 193.764,136.796 196.292,136.796C198.654,136.796 200.082,137.564 200.082,139.131C200.082,139.364 199.903,139.542 199.67,139.542L198.668,139.542C198.324,139.542 198.091,139.35 197.898,139.048C197.665,138.676 197.157,138.416 196.457,138.416C195.152,138.416 194.699,139.089 194.699,140.613" style="fill:rgb(20,70,158);fill-rule:nonzero;"/>
            </g>
            <g transform="matrix(4.16667,0,0,4.16667,0,590.488)">
                <path d="M206.644,142.289C206.644,141.148 206.123,140.682 205.367,140.682C204.694,140.682 204.063,141.148 203.568,141.643L203.568,146.134C203.568,146.367 203.39,146.546 203.156,146.546L201.66,146.546C201.426,146.546 201.248,146.367 201.248,146.134L201.248,137.345C201.248,137.111 201.426,136.933 201.66,136.933L203.156,136.933C203.39,136.933 203.568,137.111 203.568,137.345L203.568,140.036C204.2,139.501 204.886,139.061 205.916,139.061C207.702,139.061 208.965,140.009 208.965,142.289L208.965,146.134C208.965,146.367 208.787,146.546 208.553,146.546L207.056,146.546C206.823,146.546 206.644,146.367 206.644,146.134L206.644,142.289Z" style="fill:rgb(20,70,158);fill-rule:nonzero;"/>
            </g>
            <g transform="matrix(4.16667,0,0,4.16667,0,600.505)">
                <path d="M212.932,141.052C212.932,142.192 213.454,142.658 214.209,142.658C214.882,142.658 215.514,142.192 216.008,141.698L216.008,137.206C216.008,136.973 216.187,136.795 216.42,136.795L217.917,136.795C218.151,136.795 218.329,136.973 218.329,137.206L218.329,143.73C218.329,143.963 218.151,144.142 217.917,144.142L216.42,144.142C216.187,144.142 216.008,143.963 216.008,143.73L216.008,143.304C215.376,143.84 214.69,144.28 213.661,144.28C211.874,144.28 210.612,143.331 210.612,141.052L210.612,137.206C210.612,136.973 210.79,136.795 211.024,136.795L212.52,136.795C212.753,136.795 212.932,136.973 212.932,137.206L212.932,141.052Z" style="fill:rgb(20,70,158);fill-rule:nonzero;"/>
            </g>
            <g transform="matrix(4.16667,0,0,4.16667,0,591.059)">
                <path d="M222.295,144.775C222.611,144.857 223.147,144.925 223.71,144.925C224.987,144.925 225.441,144.253 225.441,142.742C225.441,141.217 224.987,140.545 223.751,140.545C223.407,140.545 222.858,140.641 222.295,140.82L222.295,144.775ZM219.975,137.208C219.975,136.974 220.153,136.796 220.387,136.796L221.883,136.796C222.116,136.796 222.295,136.974 222.295,137.208L222.295,139.268C222.858,139.089 223.407,138.924 224.232,138.924C226.374,138.924 227.829,140.215 227.829,142.742C227.829,145.255 226.388,146.546 223.572,146.546C222.268,146.546 220.689,146.203 219.975,145.791L219.975,137.208Z" style="fill:rgb(20,70,158);fill-rule:nonzero;"/>
            </g>
            <g transform="matrix(4.16667,0,0,4.16667,0,599.931)">
                <path d="M234.048,142.289L234.048,141.245L231.988,141.245C231.343,141.245 230.972,141.602 230.972,142.056C230.972,142.536 231.343,142.893 232.057,142.893C232.881,142.893 233.568,142.591 234.048,142.289M231.37,138.773C231.192,138.993 230.944,139.131 230.602,139.131L229.599,139.131C229.365,139.131 229.187,138.952 229.187,138.719C229.187,137.29 230.615,136.796 232.84,136.796C234.818,136.796 236.369,137.62 236.369,139.721L236.369,143.868C236.369,144.101 236.191,144.28 235.957,144.28L234.666,144.28C234.433,144.28 234.254,144.101 234.254,143.868L234.254,143.662C233.637,144.101 232.881,144.418 231.823,144.418C230.025,144.418 228.652,143.607 228.652,142.056C228.652,140.504 230.025,139.721 231.823,139.721L234.048,139.721C234.048,138.649 233.595,138.32 232.675,138.32C232.112,138.32 231.604,138.485 231.37,138.773" style="fill:rgb(20,70,158);fill-rule:nonzero;"/>
            </g>
            <g transform="matrix(4.16667,0,0,4.16667,0,599.357)">
                <path d="M243.728,138.361C243.728,138.595 243.548,138.773 243.315,138.773L243.095,138.773C242.779,138.773 242.423,138.732 242.065,138.732C241.379,138.732 240.831,139.131 240.335,139.721L240.335,144.006C240.335,144.239 240.158,144.418 239.923,144.418L238.427,144.418C238.193,144.418 238.014,144.239 238.014,144.006L238.014,137.482C238.014,137.249 238.193,137.071 238.427,137.071L239.923,137.071C240.158,137.071 240.335,137.249 240.335,137.482L240.335,137.908C241.104,137.345 241.804,136.933 243.315,136.933C243.548,136.933 243.728,137.112 243.728,137.345L243.728,138.361Z" style="fill:rgb(20,70,158);fill-rule:nonzero;"/>
            </g>
            <g transform="matrix(4.16667,0,0,4.16667,0,591.059)">
                <path d="M247.571,146.547C245.648,146.547 244.687,145.585 244.687,143.526L244.687,137.208C244.687,136.975 244.866,136.796 245.099,136.796L246.595,136.796C246.829,136.796 247.008,136.975 247.008,137.208L247.008,139.446L248.876,139.446C249.109,139.446 249.288,139.625 249.288,139.859L249.288,140.655C249.288,140.889 249.109,141.068 248.876,141.068L247.008,141.068L247.008,143.526C247.008,144.459 247.489,144.953 248.189,144.953C248.546,144.953 248.807,144.871 249.109,144.871L249.356,144.871C249.59,144.871 249.768,145.05 249.768,145.283L249.768,145.997C249.768,146.203 249.59,146.368 249.356,146.409C248.944,146.491 248.189,146.547 247.571,146.547" style="fill:rgb(20,70,158);fill-rule:nonzero;"/>
            </g>
            <g transform="matrix(4.16667,0,0,4.16667,0,595.404)">
                <path d="M255.369,140.34C255.602,140.34 255.781,140.519 255.781,140.752L255.781,141.549C255.781,141.782 255.602,141.96 255.369,141.96L250.315,141.96C250.082,141.96 249.903,141.782 249.903,141.549L249.903,140.752C249.903,140.519 250.082,140.34 250.315,140.34L255.369,140.34Z" style="fill:rgb(20,70,158);fill-rule:nonzero;"/>
            </g>
            <g transform="matrix(4.16667,0,0,4.16667,0,590.486)">
                <path d="M263.018,143.113C262.674,143.113 262.386,142.825 262.386,142.482L262.386,141.96C262.386,141.617 262.674,141.328 263.018,141.328L266.382,141.328C266.726,141.328 267.014,141.617 267.014,141.96L267.014,142.701C267.014,145.174 265.531,146.601 262.579,146.601L261.068,146.601C258.157,146.601 256.467,145.077 256.467,141.74C256.467,138.403 258.157,136.879 261.439,136.879L262.935,136.879C264.803,136.879 266.794,137.882 266.794,139.35C266.794,139.968 266.287,140.092 266.108,140.092L265.311,140.092C264.926,140.092 264.638,139.9 264.405,139.461C264.158,138.994 263.526,138.774 262.702,138.774L261.507,138.774C259.53,138.774 258.994,139.502 258.994,141.74C258.994,143.978 259.53,144.707 261.136,144.707L262.509,144.707C264.02,144.707 264.515,144.075 264.529,143.113L263.018,143.113Z" style="fill:rgb(20,70,158);fill-rule:nonzero;"/>
            </g>
            <g transform="matrix(4.16667,0,0,4.16667,0,609.94)">
                <path d="M271.598,141.301C270.184,141.301 269.154,140.642 268.385,138.17L267.382,134.929C267.314,134.723 267.478,134.531 267.699,134.531L269.099,134.531C269.346,134.531 269.62,134.723 269.703,134.985L270.582,137.827C271.036,139.269 271.461,139.681 272.051,139.681L273.383,134.985C273.452,134.723 273.7,134.531 273.947,134.531L275.361,134.531C275.58,134.531 275.732,134.723 275.677,134.929L273.919,141.192C273.301,143.375 272.477,144.281 270.898,144.281C270.349,144.281 269.593,144.227 269.154,144.144C268.92,144.103 268.742,143.938 268.742,143.732L268.742,142.99C268.742,142.757 268.92,142.578 269.154,142.578L269.401,142.578C269.703,142.578 269.964,142.689 270.28,142.689C270.925,142.689 271.351,142.222 271.598,141.301" style="fill:rgb(20,70,158);fill-rule:nonzero;"/>
            </g>
            <g transform="matrix(4.16667,0,0,4.16667,0,599.355)">
                <path d="M281.565,140.161C281.565,139.02 281.139,138.554 280.398,138.554C279.821,138.554 279.395,138.925 278.969,139.515L278.969,144.006C278.969,144.239 278.792,144.418 278.557,144.418L277.061,144.418C276.828,144.418 276.649,144.239 276.649,144.006L276.649,137.482C276.649,137.249 276.828,137.071 277.061,137.071L278.557,137.071C278.792,137.071 278.969,137.249 278.969,137.482L278.969,137.908C279.505,137.387 280.082,136.933 281.044,136.933C282.142,136.933 282.883,137.373 283.405,138.224C284.174,137.428 285.012,136.933 285.96,136.933C287.635,136.933 288.802,137.881 288.802,140.161L288.802,144.006C288.802,144.239 288.624,144.418 288.39,144.418L286.893,144.418C286.66,144.418 286.481,144.239 286.481,144.006L286.481,140.161C286.481,139.02 286.056,138.554 285.314,138.554C284.861,138.554 284.326,138.925 283.844,139.584C283.873,139.776 283.886,139.969 283.886,140.161L283.886,144.006C283.886,144.239 283.708,144.418 283.474,144.418L281.977,144.418C281.744,144.418 281.565,144.239 281.565,144.006L281.565,140.161Z" style="fill:rgb(20,70,158);fill-rule:nonzero;"/>
            </g>
            <g transform="matrix(4.16667,0,0,4.16667,0,599.355)">
                <path d="M295.844,140.161C295.844,139.02 295.323,138.554 294.568,138.554C293.894,138.554 293.263,139.02 292.768,139.515L292.768,144.006C292.768,144.239 292.589,144.418 292.356,144.418L290.86,144.418C290.626,144.418 290.448,144.239 290.448,144.006L290.448,137.482C290.448,137.249 290.626,137.071 290.86,137.071L292.356,137.071C292.589,137.071 292.768,137.249 292.768,137.482L292.768,137.908C293.4,137.373 294.086,136.933 295.116,136.933C296.902,136.933 298.165,137.881 298.165,140.161L298.165,144.006C298.165,144.239 297.987,144.418 297.753,144.418L296.256,144.418C296.023,144.418 295.844,144.239 295.844,144.006L295.844,140.161Z" style="fill:rgb(20,70,158);fill-rule:nonzero;"/>
            </g>
            <g transform="matrix(4.16667,0,0,4.16667,0,599.931)">
                <path d="M304.795,142.289L304.795,141.245L302.735,141.245C302.09,141.245 301.719,141.602 301.719,142.056C301.719,142.536 302.09,142.893 302.804,142.893C303.628,142.893 304.315,142.591 304.795,142.289M302.117,138.773C301.939,138.993 301.691,139.131 301.349,139.131L300.346,139.131C300.112,139.131 299.934,138.952 299.934,138.719C299.934,137.29 301.362,136.796 303.587,136.796C305.565,136.796 307.116,137.62 307.116,139.721L307.116,143.868C307.116,144.101 306.938,144.28 306.704,144.28L305.413,144.28C305.18,144.28 305.001,144.101 305.001,143.868L305.001,143.662C304.384,144.101 303.628,144.418 302.57,144.418C300.772,144.418 299.399,143.607 299.399,142.056C299.399,140.504 300.772,139.721 302.57,139.721L304.795,139.721C304.795,138.649 304.342,138.32 303.422,138.32C302.859,138.32 302.351,138.485 302.117,138.773" style="fill:rgb(20,70,158);fill-rule:nonzero;"/>
            </g>
            <g transform="matrix(4.16667,0,0,4.16667,0,599.93)">
                <path d="M312.045,144.418C309.792,144.418 308.364,143.923 308.364,142.495C308.364,142.262 308.543,142.083 308.776,142.083L309.778,142.083C310.122,142.083 310.369,142.221 310.548,142.44C310.781,142.729 311.289,142.894 311.88,142.894C313.033,142.894 313.418,142.632 313.418,142.248C313.418,141.108 308.351,141.739 308.351,138.966C308.351,137.414 309.902,136.796 311.839,136.796C314.091,136.796 315.519,137.29 315.519,138.719C315.519,138.952 315.341,139.131 315.108,139.131L314.105,139.131C313.761,139.131 313.514,138.993 313.336,138.773C313.103,138.485 312.594,138.32 312.003,138.32C311.056,138.32 310.671,138.581 310.671,138.966C310.671,140.106 315.739,139.446 315.739,142.248C315.739,143.8 314.187,144.418 312.045,144.418" style="fill:rgb(20,70,158);fill-rule:nonzero;"/>
            </g>
            <g transform="matrix(4.16667,0,0,4.16667,0,589.916)">
                <path d="M317.412,146.684C317.179,146.684 317,146.505 317,146.272L317,139.913C317,139.68 317.179,139.501 317.412,139.501L318.909,139.501C319.142,139.501 319.32,139.68 319.32,139.913L319.32,146.272C319.32,146.505 319.142,146.684 318.909,146.684L317.412,146.684ZM316.973,137.703C316.973,137.222 317.261,136.934 317.741,136.934L318.579,136.934C319.059,136.934 319.349,137.222 319.349,137.703L319.349,137.936C319.349,138.416 319.059,138.705 318.579,138.705L317.741,138.705C317.261,138.705 316.973,138.416 316.973,137.936L316.973,137.703Z" style="fill:rgb(20,70,158);fill-rule:nonzero;"/>
            </g>
            <g transform="matrix(4.16667,0,0,4.16667,0,600.505)">
                <path d="M323.315,141.052C323.315,142.192 323.837,142.658 324.592,142.658C325.265,142.658 325.897,142.192 326.391,141.698L326.391,137.206C326.391,136.973 326.57,136.795 326.803,136.795L328.3,136.795C328.534,136.795 328.712,136.973 328.712,137.206L328.712,143.73C328.712,143.963 328.534,144.142 328.3,144.142L326.803,144.142C326.57,144.142 326.391,143.963 326.391,143.73L326.391,143.304C325.759,143.84 325.073,144.28 324.044,144.28C322.258,144.28 320.995,143.331 320.995,141.052L320.995,137.206C320.995,136.973 321.173,136.795 321.407,136.795L322.903,136.795C323.137,136.795 323.315,136.973 323.315,137.206L323.315,141.052Z" style="fill:rgb(20,70,158);fill-rule:nonzero;"/>
            </g>
            <g transform="matrix(4.16667,0,0,4.16667,0,599.355)">
                <path d="M335.274,140.161C335.274,139.02 334.848,138.554 334.107,138.554C333.53,138.554 333.104,138.925 332.678,139.515L332.678,144.006C332.678,144.239 332.501,144.418 332.266,144.418L330.77,144.418C330.537,144.418 330.358,144.239 330.358,144.006L330.358,137.482C330.358,137.249 330.537,137.071 330.77,137.071L332.266,137.071C332.501,137.071 332.678,137.249 332.678,137.482L332.678,137.908C333.214,137.387 333.791,136.933 334.753,136.933C335.851,136.933 336.592,137.373 337.114,138.224C337.883,137.428 338.721,136.933 339.669,136.933C341.344,136.933 342.511,137.881 342.511,140.161L342.511,144.006C342.511,144.239 342.333,144.418 342.099,144.418L340.602,144.418C340.369,144.418 340.19,144.239 340.19,144.006L340.19,140.161C340.19,139.02 339.765,138.554 339.023,138.554C338.57,138.554 338.035,138.925 337.553,139.584C337.582,139.776 337.595,139.969 337.595,140.161L337.595,144.006C337.595,144.239 337.417,144.418 337.183,144.418L335.686,144.418C335.453,144.418 335.274,144.239 335.274,144.006L335.274,140.161Z" style="fill:rgb(20,70,158);fill-rule:nonzero;"/>
            </g>
            <g transform="matrix(4.16667,0,0,4.16667,0,590.488)">
                <path d="M351.832,142.33L356.103,142.33L356.103,138.828L354.194,138.828C353.329,138.828 352.642,139.35 352.423,140.174L351.832,142.33ZM349.991,139.542C350.555,137.413 352.491,136.933 354.441,136.933L358.053,136.933C358.383,136.933 358.63,137.222 358.63,137.551L358.63,145.928C358.63,146.271 358.341,146.546 357.998,146.546L356.734,146.546C356.378,146.546 356.103,146.271 356.103,145.914L356.103,144.225L351.338,144.225L350.884,145.914C350.788,146.271 350.444,146.546 350.088,146.546L348.769,146.546C348.412,146.546 348.206,146.271 348.303,145.928L349.991,139.542Z" style="fill:rgb(20,70,158);fill-rule:nonzero;"/>
            </g>
            <g transform="matrix(4.16667,0,0,4.16667,0,599.931)">
                <path d="M365.396,142.289L365.396,141.245L363.336,141.245C362.691,141.245 362.321,141.602 362.321,142.056C362.321,142.536 362.691,142.893 363.405,142.893C364.229,142.893 364.916,142.591 365.396,142.289M362.718,138.773C362.541,138.993 362.292,139.131 361.95,139.131L360.948,139.131C360.713,139.131 360.535,138.952 360.535,138.719C360.535,137.29 361.963,136.796 364.188,136.796C366.167,136.796 367.717,137.62 367.717,139.721L367.717,143.868C367.717,144.101 367.539,144.28 367.306,144.28L366.015,144.28C365.781,144.28 365.603,144.101 365.603,143.868L365.603,143.662C364.985,144.101 364.229,144.418 363.172,144.418C361.374,144.418 360.001,143.607 360.001,142.056C360.001,140.504 361.374,139.721 363.172,139.721L365.396,139.721C365.396,138.649 364.943,138.32 364.023,138.32C363.46,138.32 362.953,138.485 362.718,138.773" style="fill:rgb(20,70,158);fill-rule:nonzero;"/>
            </g>
            <g transform="matrix(4.16667,0,0,4.16667,0,590.487)">
                <path d="M369.776,146.547C369.543,146.547 369.364,146.368 369.364,146.135L369.364,137.346C369.364,137.112 369.543,136.934 369.776,136.934L371.272,136.934C371.506,136.934 371.684,137.112 371.684,137.346L371.684,146.135C371.684,146.368 371.506,146.547 371.272,146.547L369.776,146.547Z" style="fill:rgb(20,70,158);fill-rule:nonzero;"/>
            </g>
            <g transform="matrix(4.16667,0,0,4.16667,0,599.929)">
                <path d="M375.269,139.899L378.386,139.899C378.345,138.869 377.85,138.32 376.834,138.32C375.845,138.32 375.324,138.869 375.269,139.899M375.283,141.313C375.378,142.413 375.873,142.893 376.998,142.893C377.576,142.893 378.083,142.728 378.317,142.44C378.496,142.22 378.743,142.083 379.086,142.083L380.089,142.083C380.323,142.083 380.5,142.261 380.5,142.495C380.5,143.922 379.032,144.418 376.834,144.418C374.39,144.418 372.92,143.099 372.92,140.613C372.92,138.141 374.404,136.795 376.834,136.795C379.279,136.795 380.748,138.1 380.748,140.517L380.748,140.902C380.748,141.135 380.57,141.313 380.336,141.313L375.283,141.313Z" style="fill:rgb(20,70,158);fill-rule:nonzero;"/>
            </g>
            <g transform="matrix(4.16667,0,0,4.16667,0,599.355)">
                <path d="M387.378,140.161C387.378,139.02 386.857,138.554 386.101,138.554C385.428,138.554 384.797,139.02 384.302,139.515L384.302,144.006C384.302,144.239 384.124,144.418 383.89,144.418L382.394,144.418C382.16,144.418 381.982,144.239 381.982,144.006L381.982,137.482C381.982,137.249 382.16,137.071 382.394,137.071L383.89,137.071C384.124,137.071 384.302,137.249 384.302,137.482L384.302,137.908C384.934,137.373 385.62,136.933 386.65,136.933C388.436,136.933 389.699,137.881 389.699,140.161L389.699,144.006C389.699,144.239 389.521,144.418 389.287,144.418L387.79,144.418C387.557,144.418 387.378,144.239 387.378,144.006L387.378,140.161Z" style="fill:rgb(20,70,158);fill-rule:nonzero;"/>
            </g>
        </g>
    </g>
</svg>
